<svg xmlns="http://www.w3.org/2000/svg" viewBox="0 0 1329.5 397.47"><defs><style>.cls-1,.cls-2,.cls-3{stroke:#000;stroke-miterlimit:10;stroke-width:4px}.cls-2{fill:#fff033}.cls-3{fill:#fff}</style></defs><g id="Layer_7" data-name="Layer 7"><path class="cls-1" d="M2 61h60v11H2zm118.5.5h240v11h-240zm262 0h240v11h-240zm262 0h240v11h-240zm443 0h240v11h-240zm-192 0h180v11h-180z"/><path class="cls-2 key" d="M2 2h60v60H2z"/><path class="cls-3 key" d="M120.5 2.5h60v60h-60zm60 0h60v60h-60zm60 0h60v60h-60zm60 0h60v60h-60z"/><path class="cls-2 key" d="M382.5 2.5h60v60h-60zm60 0h60v60h-60zm60 0h60v60h-60zm60 0h60v60h-60z"/><path class="cls-3 key" d="M644.5 2.5h60v60h-60zm60 0h60v60h-60zm60 0h60v60h-60zm60 0h60v60h-60zm263 0h60v60h-60zm60 0h60v60h-60zm60 0h60v60h-60zm60 0h60v60h-60z"/><path class="cls-2 key" d="M895.5 2.5h60v60h-60zm60 0h60v60h-60zm60 0h60v60h-60z"/></g><g id="Layer_6" data-name="Layer 6"><path class="cls-1" d="M2.5 144.5H873v11H2.5zm893 0h180v11h-180zm192 0h240v11h-240z"/><path class="cls-3 key" d="M2.5 85.5h60v60h-60zm60 0h60v60h-60zm60 0h60v60h-60zm60 0h60v60h-60zm60 0h60v60h-60zm60 0h60v60h-60zm60 0h60v60h-60zm60 0h60v60h-60zm60 0h60v60h-60zm60 0h60v60h-60zm60 0h60v60h-60zm60 0h60v60h-60zm60 0h60v60h-60z"/><path class="cls-2 key" d="M782.5 85.5H873v60h-90.5zm113 0h60v60h-60zm60 0h60v60h-60zm60 0h60v60h-60zm72 0h60v60h-60zm60 0h60v60h-60zm60 0h60v60h-60zm60 0h60v60h-60z"/></g><g id="Layer_5" data-name="Layer 5"><path class="cls-1" d="M2.5 204.5H873v11H2.5zm893 .5h180v11h-180zm192 0h180v11h-180z"/><path class="cls-2 key" d="M2.5 145.5h74v60h-74z"/><path class="cls-3 key" d="M76.5 145.5h60v60h-60zm60 0h60v60h-60zm60 0h60v60h-60zm60 0h60v60h-60zm60 0h60v60h-60zm60 0h60v60h-60zm60 0h60v60h-60zm60 0h60v60h-60zm60 0h60v60h-60zm60 0h60v60h-60zm60 0h60v60h-60zm60 0h60v60h-60z"/><path class="cls-2 key" d="M895.5 146h60v60h-60zm60 0h60v60h-60zm60 0h60v60h-60z"/><path class="cls-3 key" d="M1087.5 146h60v60h-60zm60 0h60v60h-60zm60 0h60v60h-60zm-411-.5H873v60h-76.5z"/></g><g id="Layer_4" data-name="Layer 4"><path class="cls-1" d="M2.5 264.47H873v11H2.5zm1085 0h240v11h-240z"/><path class="cls-2 key" d="M2.5 205.47h97.92v60H2.5zm1265-60h60v120h-60z"/><path class="cls-3 key" d="M100.42 205.47h60v60h-60z"/><path class="cls-3 key" d="M160.42 205.47h60v60h-60z"/><path class="cls-3 key" d="M220.42 205.47h60v60h-60zm60 0h60v60h-60zm60 0h60v60h-60zm60 0h60v60h-60zm60 0h60v60h-60zm60 0h60v60h-60zm60 0h60v60h-60zm60 0h60v60h-60zm60 0h60v60h-60zm387.08 0h60v60h-60zm60 0h60v60h-60zm60 0h60v60h-60zm-447.08 0H873v60H760.42z"/></g><g id="Layer_3" data-name="Layer 3"><path class="cls-1" d="M2.5 324.47H873v11H2.5zm953 0h60v11h-60zm132 0h180v11h-180z"/><path class="cls-2 key" d="M2.5 265.47h127.92v60H2.5z"/><path class="cls-3 key" d="M130.42 265.47h60v60h-60zm60 0h60v60h-60z"/><path class="cls-3 key" d="M250.42 265.47h60v60h-60zm60 0h60v60h-60zm60 0h60v60h-60zm60 0h60v60h-60zm60 0h60v60h-60zm60 0h60v60h-60zm60 0h60v60h-60zm60 0h60v60h-60z"/><path class="cls-2 key" d="M955.5 265.47h60v60h-60z"/><path class="cls-3 key" d="M1087.5 265.47h60v60h-60zm60 0h60v60h-60zm60 0h60v60h-60z"/><path class="cls-2 key" d="M730.42 265.47H873v60H730.42z"/></g><g id="Layer_2" data-name="Layer 2"><path class="cls-1" d="M895.5 384.47h180v11h-180zm192 0h240v11h-240zm-1085 0h82.62v11H2.5zm146.61 0h573.93v11H149.11zm641.27 0H873v11h-82.62z"/><path class="cls-2 key" d="M955.5 325.47h60v60h-60zm-60 0h60v60h-60zm120 0h60v60h-60z"/><path class="cls-3 key" d="M1087.5 325.47h120v60h-120zm120 0h60v60h-60z"/><path class="cls-2 key" d="M2.5 325.47h82.62v60H2.5zm146.61 0h82.62v60h-82.62zm491.31 0h82.62v60h-82.62zm149.96 0H873v60h-82.62z"/><path class="cls-3 key" d="M231.73 325.47h408.69v60H231.73z"/><path class="cls-2 key" d="M1267.5 265.47h60v120h-60z"/></g></svg>